<svg width="26" height="26" viewBox="0 0 26 26" fill="none" xmlns="http://www.w3.org/2000/svg">
<path d="M15.4611 17.0552C14.592 17.0552 13.915 16.9897 13.7228 16.9679C13.2773 16.9155 12.9541 16.518 13.0066 16.0725C13.0546 15.627 13.452 15.3082 13.9019 15.3562C15.9241 15.579 19.025 15.3868 19.5666 14.26C19.7588 13.8582 20.2436 13.6835 20.6498 13.88C21.0559 14.0722 21.2263 14.5614 21.0297 14.9632C20.1693 16.7408 17.3523 17.0552 15.4611 17.0552Z" fill="black"/>
<path d="M22.7505 16.2474C22.3007 16.2474 21.9382 15.8848 21.9382 15.435V12.6354L20.8507 12.2467C20.5275 12.1331 20.3091 11.823 20.3091 11.4824C20.3091 7.45111 17.0291 4.17109 12.9978 4.17109C8.96657 4.17109 5.68655 7.45111 5.68655 11.4824C5.68655 11.7444 5.55989 11.989 5.34588 12.1419L4.87418 12.4782V15.4306C4.87418 15.8805 4.51168 16.243 4.06182 16.243C3.61196 16.243 3.24945 15.8805 3.24945 15.4306V12.0589C3.24945 11.7968 3.37611 11.5522 3.59012 11.3994L4.07055 11.0543C4.2933 6.32429 8.21099 2.54199 12.9978 2.54199C17.7322 2.54636 21.6194 6.24567 21.9207 10.9058L23.0257 11.2989C23.3489 11.4125 23.5673 11.7226 23.5673 12.0632V15.435C23.5629 15.8848 23.2004 16.2474 22.7505 16.2474Z" fill="black"/>
<path d="M16.2473 19.8987V19.6541C16.9592 19.0994 17.527 18.5622 17.8633 17.8066C17.1251 17.9245 16.2997 17.8808 15.6358 17.8808C14.8235 17.8808 14.129 17.9027 13.7054 17.8546C12.8144 17.7542 12.1723 16.8719 12.2684 15.981C12.3689 15.09 13.1769 14.4392 14.0635 14.544C15.8717 14.7362 17.8676 14.5266 18.6669 14.1903C18.7018 13.4478 18.6931 12.666 18.6931 12.072C18.6931 8.59545 16.5792 6.53397 13.19 6.45972C13.1725 6.45972 12.7139 6.45972 12.6965 6.45972C9.30724 6.5296 7.27633 8.61728 7.27633 12.0982C7.27633 14.2471 7.31127 17.7542 9.74836 19.6584V19.903C6.49891 20.4097 4.00941 21.7461 4.00941 23.5106C4.00941 23.9605 4.38502 24.3798 4.83487 24.3798H20.7808C21.2306 24.3798 21.7941 23.9605 21.7941 23.5106C21.7984 21.7418 19.5011 20.4097 16.2473 19.8987Z" fill="black"/>
</svg>
