<svg width="26" height="26" viewBox="0 0 26 26" fill="none" xmlns="http://www.w3.org/2000/svg">
<path d="M13 3.47421C7.74719 3.47421 3.4742 7.74771 3.4742 13C3.4742 18.2523 7.74719 22.5258 13 22.5258C18.2528 22.5258 22.5258 18.2523 22.5258 13C22.5258 7.74771 18.2528 3.47421 13 3.47421ZM19.747 8.60312H17.565C17.2522 7.46308 16.822 6.46015 16.2985 5.65298C17.7055 6.28798 18.9019 7.31158 19.747 8.60337V8.60312ZM16.6639 13C16.6656 13.9832 16.576 14.9645 16.3962 15.9311H9.60375C9.24692 13.9933 9.24692 12.0067 9.60375 10.0689H16.3962C16.576 11.0356 16.6656 12.0168 16.6639 13ZM13 21.0603C11.8777 21.0603 10.6752 19.6658 9.96531 17.3967H16.0337C15.3248 19.6658 14.1223 21.0603 13 21.0603ZM9.96531 8.60337C10.6762 6.33421 11.8777 4.93976 13 4.93976C14.1223 4.93976 15.3248 6.33421 16.0347 8.60337H9.96531ZM9.7015 5.65324C9.17795 6.4604 8.74783 7.46333 8.43502 8.60337H6.25295C7.09809 7.31167 8.29451 6.28817 9.7015 5.65324ZM5.49935 10.0689H8.11078C7.79052 12.0099 7.79052 13.9902 8.11078 15.9311H5.49935C4.7532 14.0483 4.7532 11.9518 5.49935 10.0689ZM6.25295 17.3967H8.43502C8.74783 18.5367 9.17795 19.5396 9.7015 20.3468C8.29451 19.7119 7.09809 18.6884 6.25295 17.3967ZM16.2985 20.3468C16.822 19.5396 17.2522 18.5367 17.565 17.3967H19.747C18.9019 18.6884 17.7055 19.7119 16.2985 20.3468ZM20.5006 15.9311H17.8892C18.2095 13.9902 18.2095 12.0099 17.8892 10.0689H20.5006C21.2468 11.9518 21.2468 14.0483 20.5006 15.9311Z" fill="#ffffff"/>
</svg>
