<svg width="10" height="10" viewBox="0 0 10 10" fill="none" xmlns="http://www.w3.org/2000/svg">
<path d="M5.59625 7.34375L8.61188 3.3925C8.69673 3.28131 8.74881 3.1486 8.76221 3.00937C8.77561 2.87014 8.74982 2.72994 8.68773 2.6046C8.62565 2.47926 8.52975 2.37378 8.41087 2.30008C8.292 2.22637 8.15488 2.18738 8.015 2.1875H1.98469C1.84487 2.18749 1.70783 2.22657 1.58905 2.30032C1.47026 2.37408 1.37446 2.47956 1.31245 2.60488C1.25044 2.7302 1.2247 2.87036 1.23812 3.00953C1.25155 3.1487 1.30362 3.28135 1.38844 3.3925L4.40407 7.34375C4.47406 7.43542 4.56426 7.50971 4.66765 7.56085C4.77103 7.61199 4.88482 7.63859 5.00016 7.63859C5.1155 7.63859 5.22929 7.61199 5.33267 7.56085C5.43606 7.50971 5.52626 7.43542 5.59625 7.34375Z" fill="white"/>
</svg>
